# File created by Blade
# Date/Time:  Thu Jan 22 18:25:10 2015
# Frame Rate: 120.000 fps
#------------------------------------------------------
:FULLY-SPECIFIED
:DEGREES
2665
root -2.820560 33.109087 -0.311321 7.699010 -1.154808 2.748871
RightUpLeg -1.322392 -5.403089 -2.129068
RightLeg 0.662540 -0.000000 -0.000000
RightFoot -12.451361 -3.762985 3.599076
RightToeBase 5.856519 -0.000000 -0.000000
LeftUpLeg -1.193863 3.653130 0.487557
LeftLeg 0.838573 -0.000000 -0.000000
LeftFoot -10.673709 1.921251 -8.882983
LeftToeBase 8.853434 -0.000000 -0.000000
Spine -12.581633 -11.755799 -1.781297
RightShoulder 6.556359 7.289010 -20.065662
RightArm 53.313849 -34.492476 79.963135
RightForeArm 42.766883 -0.000000 118.665894
RightHand 19.691473 -0.000000 20.047585
RightHandThumb1 -24.326973 -0.000000 -32.862282
LeftShoulder -0.683644 -59.569877 49.976412
LeftArm 65.663080 41.738575 -94.518178
LeftForeArm 18.331093 0.000000 120.148502
LeftHand 0.923978 0.000000 -24.687941
LeftHandThumb1 -26.253704 0.000000 33.147579
Head -2.139562 17.369588 -6.128755
2666
root -2.818739 33.109495 -0.312253 7.694172 -1.157236 2.754996
RightUpLeg -1.322218 -5.399315 -2.138244
RightLeg 0.669097 -0.000000 -0.000000
RightFoot -12.452971 -3.779349 3.602063
RightToeBase 5.870526 -0.000000 -0.000000
LeftUpLeg -1.191374 3.644767 0.478884
LeftLeg 0.842732 -0.000000 -0.000000
LeftFoot -10.671763 1.929126 -8.892879
LeftToeBase 8.826305 -0.000000 -0.000000
Spine -12.583262 -11.742577 -1.787383
RightShoulder 6.542722 7.263974 -20.059034
RightArm 53.338940 -34.490320 79.940366
RightForeArm 42.773274 -0.000000 118.659023
RightHand 19.696475 -0.000000 20.064738
RightHandThumb1 -24.326973 -0.000000 -32.862282
LeftShoulder -0.673671 -59.609789 49.985238
LeftArm 65.616488 41.738990 -94.544581
LeftForeArm 18.354025 -0.000000 120.150570
LeftHand 0.939138 -0.000000 -24.677189
LeftHandThumb1 -26.253704 0.000000 33.147579
Head -2.136871 17.350640 -6.119075
2667
root -2.817421 33.109042 -0.313137 7.686998 -1.155981 2.750232
RightUpLeg -1.313835 -5.385324 -2.134752
RightLeg 0.662139 -0.000000 -0.000000
RightFoot -12.451636 -3.802075 3.589612
RightToeBase 5.895524 -0.000000 -0.000000
LeftUpLeg -1.193431 3.650981 0.479507
LeftLeg 0.857937 -0.000000 -0.000000
LeftFoot -10.697103 1.927677 -8.910493
LeftToeBase 8.866974 -0.000000 -0.000000
Spine -12.579810 -11.746879 -1.771752
RightShoulder 6.543581 7.249680 -20.066629
RightArm 53.375567 -34.496118 79.912967
RightForeArm 42.760952 -0.000000 118.653321
RightHand 19.729835 -0.000000 20.029734
RightHandThumb1 -24.326973 -0.000000 -32.862282
LeftShoulder -0.684388 -59.627717 49.990767
LeftArm 65.588659 41.738209 -94.555039
LeftForeArm 18.340880 -0.000000 120.149567
LeftHand 0.954794 0.000000 -24.684970
LeftHandThumb1 -26.253704 0.000000 33.147579
Head -2.146629 17.362473 -6.115715
2668
root -2.815830 33.109622 -0.314426 7.685059 -1.166522 2.752270
RightUpLeg -1.323943 -5.390589 -2.139619
RightLeg 0.677255 -0.000000 -0.000000
RightFoot -12.448208 -3.784326 3.597797
RightToeBase 5.868490 -0.000000 -0.000000
LeftUpLeg -1.193787 3.649563 0.477341
LeftLeg 0.858113 -0.000000 -0.000000
LeftFoot -10.682198 1.926282 -8.873154
LeftToeBase 8.835517 -0.000000 -0.000000
Spine -12.590166 -11.732047 -1.764840
RightShoulder 6.552447 7.231928 -20.072009
RightArm 53.393765 -34.493834 79.896630
RightForeArm 42.727339 -0.000000 118.654770
RightHand 19.725958 -0.000000 20.062066
RightHandThumb1 -24.326973 -0.000000 -32.862282
LeftShoulder -0.666368 -59.659967 49.973336
LeftArm 65.549766 41.733994 -94.564083
LeftForeArm 18.377712 -0.000000 120.144566
LeftHand 1.021210 -0.000000 -24.681801
LeftHandThumb1 -26.253704 0.000000 33.147579
Head -2.130735 17.352664 -6.119385
2669
root -2.813500 33.109666 -0.315789 7.672176 -1.177563 2.751026
RightUpLeg -1.319781 -5.371170 -2.144893
RightLeg 0.687520 -0.000000 -0.000000
RightFoot -12.456334 -3.794655 3.592989
RightToeBase 5.875153 -0.000000 -0.000000
LeftUpLeg -1.186738 3.650245 0.473776
LeftLeg 0.869798 -0.000000 -0.000000
LeftFoot -10.693337 1.936130 -8.883242
LeftToeBase 8.849995 -0.000000 -0.000000
Spine -12.577284 -11.714257 -1.759966
RightShoulder 6.544801 7.203140 -20.071669
RightArm 53.436019 -34.483429 79.873334
RightForeArm 42.706503 -0.000000 118.649081
RightHand 19.686051 0.000000 20.105303
RightHandThumb1 -24.326973 -0.000000 -32.862282
LeftShoulder -0.648892 -59.687895 49.952552
LeftArm 65.528599 41.737504 -94.568570
LeftForeArm 18.369095 -0.000000 120.144110
LeftHand 0.960162 -0.000000 -24.745710
LeftHandThumb1 -26.253704 0.000000 33.147579
Head -2.130627 17.339215 -6.130329
2670
root -2.811501 33.110030 -0.316987 7.666411 -1.182997 2.759180
RightUpLeg -1.317270 -5.379154 -2.157117
RightLeg 0.687641 -0.000000 -0.000000
RightFoot -12.453641 -3.783528 3.601579
RightToeBase 5.883604 -0.000000 -0.000000
LeftUpLeg -1.187983 3.633259 0.460725
LeftLeg 0.882822 -0.000000 -0.000000
LeftFoot -10.696797 1.965050 -8.900843
LeftToeBase 8.854933 -0.000000 -0.000000
Spine -12.578638 -11.696674 -1.765006
RightShoulder 6.534896 7.176839 -20.074136
RightArm 53.469944 -34.478842 79.852554
RightForeArm 42.635690 -0.000000 118.656967
RightHand 19.545254 -0.000000 20.239962
RightHandThumb1 -24.326973 -0.000000 -32.862282
LeftShoulder -0.618952 -59.750308 49.930447
LeftArm 65.469257 41.740467 -94.583927
LeftForeArm 18.437808 -0.000000 120.144103
LeftHand 1.005676 -0.000000 -24.689129
LeftHandThumb1 -26.253704 0.000000 33.147579
Head -2.128519 17.312828 -6.118266
2671
root -2.810152 33.109716 -0.318844 7.657720 -1.188648 2.751596
RightUpLeg -1.316184 -5.372648 -2.151537
RightLeg 0.696308 -0.000000 -0.000000
RightFoot -12.459506 -3.794243 3.587625
RightToeBase 5.888536 -0.000000 -0.000000
LeftUpLeg -1.187669 3.632987 0.464987
LeftLeg 0.898777 -0.000000 -0.000000
LeftFoot -10.723192 1.965262 -8.906979
LeftToeBase 8.923004 -0.000000 -0.000000
Spine -12.575523 -11.696517 -1.744084
RightShoulder 6.553613 7.182371 -20.079740
RightArm 53.469175 -34.468762 79.856188
RightForeArm 42.629194 -0.000000 118.656664
RightHand 19.545351 -0.000000 20.280097
RightHandThumb1 -24.326973 -0.000000 -32.862282
LeftShoulder -0.640347 -59.754294 49.939903
LeftArm 65.439989 41.735096 -94.587717
LeftForeArm 18.392402 -0.000000 120.160719
LeftHand 0.988169 -0.000000 -24.709752
LeftHandThumb1 -26.253704 0.000000 33.147579
Head -2.117345 17.322040 -6.134371
